<?xml version="1.0" standalone="no"?>
<!DOCTYPE svg PUBLIC "-//W3C//DTD SVG 20010904//EN"
 "http://www.w3.org/TR/2001/REC-SVG-20010904/DTD/svg10.dtd">
<svg version="1.0" xmlns="http://www.w3.org/2000/svg"
 width="1280.000000pt" height="900.000000pt" viewBox="0 0 1280.000000 900.000000"
 preserveAspectRatio="xMidYMid meet">
<metadata>
Created by potrace 1.16, written by Peter Selinger 2001-2019
</metadata>
<g transform="translate(0.000000,900.000000) scale(0.100000,-0.100000)"
fill="#000000" stroke="none">
<path d="M1150 3965 l0 -3965 4500 0 4500 0 0 3965 0 3965 -4500 0 -4500 0 0
-3965z m4785 1989 c154 -10 353 -75 465 -150 83 -57 112 -84 181 -169 64 -80
98 -149 128 -255 21 -74 21 -89 21 -1090 0 -904 -2 -1022 -16 -1075 -9 -33
-20 -78 -25 -100 -30 -139 -167 -297 -334 -383 -96 -50 -146 -72 -160 -72 -9
0 -29 -7 -46 -15 -37 -19 -183 -43 -358 -57 -186 -15 -521 15 -626 56 -22 8
-48 15 -59 16 -10 0 -35 9 -55 19 -20 10 -61 31 -91 46 -76 37 -197 132 -243
191 -48 61 -94 157 -107 221 -5 26 -16 70 -25 97 -11 38 -15 100 -15 268 0
200 2 227 26 325 57 238 182 409 365 501 47 24 101 47 120 52 45 12 436 145
463 158 12 6 41 17 66 25 25 8 61 20 80 27 292 104 296 106 375 186 63 62 73
78 94 146 28 92 26 186 -8 294 -51 162 -219 257 -481 270 -88 4 -123 1 -218
-19 -62 -14 -121 -32 -131 -41 -10 -9 -22 -16 -28 -16 -6 0 -36 -27 -66 -60
-54 -60 -82 -123 -102 -226 -3 -17 -15 -41 -26 -53 -19 -20 -28 -21 -254 -21
l-234 0 -21 30 c-20 29 -22 40 -18 153 5 162 47 286 138 409 78 104 298 245
420 268 29 5 72 17 96 25 25 8 75 15 112 16 37 1 77 4 90 7 27 8 378 5 507 -4z
m-1436 -3910 c16 -20 32 -49 36 -63 4 -14 25 -64 47 -111 72 -150 213 -451
238 -505 9 -22 38 -83 63 -135 25 -52 49 -106 53 -120 3 -14 12 -32 18 -40 7
-8 21 -35 31 -59 17 -39 18 -46 4 -70 -14 -25 -18 -26 -121 -29 l-105 -3 -32
36 c-17 20 -31 43 -31 52 0 9 -11 31 -26 50 l-25 33 -187 0 c-212 0 -228 -4
-249 -65 -7 -22 -28 -54 -45 -72 -32 -33 -32 -33 -133 -33 -106 0 -125 7 -125
45 1 25 33 119 47 137 6 7 23 40 38 73 15 33 41 89 57 125 16 36 48 103 70
150 49 104 75 160 126 270 152 330 162 349 180 359 28 17 39 13 71 -25z m1771
14 c11 -12 29 -42 41 -67 21 -48 24 -53 109 -236 28 -60 60 -128 70 -150 36
-81 112 -241 131 -277 10 -20 19 -42 19 -48 0 -7 9 -24 19 -39 10 -14 24 -45
30 -67 6 -23 18 -47 26 -54 8 -7 15 -18 15 -24 0 -6 11 -33 25 -61 27 -55 31
-95 13 -113 -8 -8 -48 -12 -115 -12 -120 0 -130 6 -179 101 -14 30 -32 57 -38
61 -6 4 -100 8 -208 8 l-198 0 -31 -61 c-52 -104 -61 -109 -182 -109 -67 0
-107 4 -115 12 -22 22 -13 65 33 157 25 50 45 93 45 96 0 7 47 108 181 390 21
44 54 116 74 160 20 44 52 112 70 150 18 39 37 81 41 95 6 22 20 44 65 98 15
18 36 15 59 -10z m831 3 c14 -10 42 -53 64 -95 22 -42 61 -116 87 -164 26 -48
56 -105 67 -127 11 -22 43 -80 71 -130 27 -49 55 -102 61 -117 19 -49 50 -30
89 52 11 25 40 81 65 125 24 44 63 117 85 162 23 45 48 87 55 93 8 6 17 24 20
40 3 16 13 34 21 41 8 6 14 16 14 22 0 6 15 32 33 59 38 57 72 71 97 40 19
-23 55 -174 64 -267 3 -33 13 -91 21 -130 20 -94 55 -295 65 -375 8 -62 19
-124 40 -220 13 -63 12 -134 -2 -148 -18 -18 -232 -16 -247 1 -6 8 -17 61 -26
118 -8 57 -19 127 -24 154 -5 28 -10 75 -11 105 -1 101 -25 104 -72 6 -16 -33
-36 -72 -44 -86 -8 -14 -19 -36 -24 -50 -6 -14 -21 -43 -34 -65 -14 -22 -39
-69 -56 -105 -42 -85 -57 -100 -95 -100 -45 0 -61 16 -109 110 -174 343 -183
359 -207 360 -6 0 -25 -114 -34 -205 -9 -90 -36 -228 -48 -242 -6 -9 -43 -13
-118 -13 -100 0 -109 2 -123 22 -18 26 -21 70 -6 98 5 10 15 65 21 122 5 57
16 123 24 148 7 25 19 90 25 145 7 55 18 123 25 150 7 28 16 83 20 123 3 40
12 94 20 120 7 26 16 76 20 112 13 116 50 155 106 111z m-1379 -12 c17 -9 18
-21 16 -122 l-3 -112 -115 -5 c-63 -3 -120 -9 -127 -13 -9 -6 -12 -110 -13
-428 0 -270 -4 -428 -11 -440 -9 -18 -20 -19 -127 -17 -113 3 -117 4 -129 28
-10 19 -13 120 -12 439 0 335 -2 415 -13 422 -7 5 -58 9 -113 9 -55 0 -105 4
-112 8 -7 4 -13 45 -15 105 -5 153 -33 143 401 139 212 -2 362 -7 373 -13z
m-2304 -5 l22 -15 0 -415 c0 -267 4 -422 10 -435 10 -18 23 -19 188 -19 131 0
183 -3 196 -13 15 -11 18 -28 17 -110 -1 -53 -4 -103 -7 -112 -5 -13 -48 -15
-330 -15 -309 0 -324 1 -334 19 -6 13 -10 205 -10 555 0 635 -14 576 133 576
68 0 99 -4 115 -16z"/>
<path d="M6147 4219 c-19 -27 -69 -57 -122 -74 -22 -8 -78 -28 -125 -45 -47
-18 -105 -38 -130 -45 -64 -19 -139 -45 -185 -65 -22 -10 -56 -21 -75 -25 -19
-4 -73 -26 -120 -48 -142 -69 -221 -169 -256 -326 -17 -73 -16 -77 6 -180 42
-194 97 -257 270 -312 67 -22 93 -24 250 -24 159 0 180 2 227 23 28 12 60 22
69 22 28 0 106 59 142 107 18 24 45 78 60 121 l27 77 0 404 c0 416 -2 442 -38
390z"/>
<path d="M4421 1481 c-12 -22 -21 -46 -21 -53 0 -6 -12 -29 -26 -49 -14 -21
-23 -43 -19 -48 8 -13 181 -15 189 -2 3 5 -8 38 -26 73 -17 34 -34 74 -38 88
-11 40 -36 36 -59 -9z"/>
<path d="M6212 1498 c-5 -7 -13 -24 -17 -38 -4 -14 -18 -44 -32 -68 -37 -64
-29 -72 72 -72 101 0 111 10 72 68 -13 20 -28 50 -32 67 -12 51 -40 70 -63 43z"/>
</g>
</svg>
