<?xml version="1.0" encoding="UTF-8"?>
<svg version="1.1" viewBox="0 0 2048 1152" width="1280" height="720" xmlns="http://www.w3.org/2000/svg">
<path transform="translate(0)" d="m0 0h2048v1152h-2048z" fill="#FEFEFE"/>
<path transform="translate(1163,468)" d="m0 0h513l1 1v12l-5 22-46 184-1 1-54 1h-373l-113-1-586-2-125-1v-9l1-1h445l-5-2 2-5 8-11 3-4 9 1h9l8-2 8-4 9-9 9-12-7-2-1-32-2-37-1-27-1-15 1-2h29l1 21v62l1 2 11-18 44-66 1-1h28l-5 9-13 19-17 25-13 19-32 47-9 12-12 14-14 11-15 7 34 1 222 1 4-18 17-67 16-64 15-59z" fill="#EB1F26"/>
<path transform="translate(1341,479)" d="m0 0h154l-2 11-26 99-20 76-4 14h-153l1-9 26-101 17-66 6-23z" fill="#FEFEFE"/>
<path transform="translate(580,508)" d="m0 0h8l16 3 8 5 4 6 1 3v12l-6 20-17 50-6 18-1 1h-24v-9l-15 7-14 4-9 1h-9l-12-3-7-6-3-7v-10l4-12 6-8 9-9 16-9 18-6 17-3 20-1 2-9v-9l-1-4-15-2-18 4-15 6-7 2-5-16 3-3 17-8 15-5z" fill="#0C0202"/>
<path transform="translate(812,508)" d="m0 0h7l15 3 10 6 6 9 2 6v14l-4 15-5 12-2 2-76 1-2 12 3 10 5 5 8 3h14l16-4 13-5 2 6 2 12-12 6-14 5-9 2-10 1h-11l-12-2-12-5-7-7-4-8-1-4v-16l5-19 9-19 9-12 6-7 10-8 14-8 12-4z" fill="#0B0202"/>
<path transform="translate(869,512)" d="m0 0h29l1 21v62l1 2 11-18 44-66 1-1h28l-5 9-13 19-17 25-13 19-32 47-9 12-12 14-14 11-15 7-12 1h-10l-12-1-5-2 2-5 8-11 3-4 9 1h9l8-2 8-4 9-9 9-12-7-2-1-32-2-37-1-27-1-15z" fill="#090202"/>
<path transform="translate(1102,510)" d="m0 0 1 2-21 62-17 50-1 2h-24l1-9-16 7-14 4-9 1h-10l-10-3-6-4-4-7-1-9 3-14 17-50 10-28 1-1 16-2h12l-12 36-14 41-1 4v9l1 3 4 1h15l16-5 7-2 3-11 24-71 2-3z" fill="#0B0202"/>
<path transform="translate(460,508)" d="m0 0 14 1 14 3 14 7 2 3-9 9-7 8-5-2-11-5-4-1h-19l-9 5-2 4v9l10 3 21 7 10 6 6 7 2 6v8l-4 12-6 9-10 10-16 8-11 3-9 1h-12l-11-1-12-4-11-6-5-5 18-18 11 7 10 4 13 1 11-1 8-4h2l2-5 1-2v-7l-6-5-29-10-8-6-5-6-1-3v-10l4-11 7-10 8-7 10-6 13-4z" fill="#0B0202"/>
<path transform="translate(692,508)" d="m0 0 14 1 14 3 14 7 2 3-9 9-7 8-5-2-11-5-4-1h-19l-9 5-2 4v7l4 3 27 9 10 6 6 7 2 6v8l-4 12-6 9-10 10-16 8-11 3-9 1h-12l-11-1-12-4-11-6-5-5 17-17 4 1 10 6 8 3 7 1h9l11-2 5-3h2l2-5 1-2v-7l-6-5-29-10-8-6-5-6-1-3v-10l4-11 7-10 8-7 10-6 13-4z" fill="#0B0202"/>
<path transform="translate(575,573)" d="m0 0h2l-2 9-6 17-12 5-12 3h-15l-4-2-1-2v-9l6-8 8-5 11-4 8-2z" fill="#FEFEFE"/>
<path transform="translate(801,529)" d="m0 0h14l6 3 4 8-1 10-2 5h-49l4-8 9-10 9-6z" fill="#FEFEFE"/>
</svg>
